<svg width="492" height="445" viewBox="0 0 492 445" fill="none" xmlns="http://www.w3.org/2000/svg">
<path d="M238.835 375.271C275.092 375.271 306.473 366.957 328.807 351.948C351.154 336.931 364.44 315.207 364.44 288.461C364.44 270.441 358.712 255.894 348.686 243.829C338.67 231.775 324.382 222.219 307.288 214.133C280.128 201.286 245.772 192.105 209.995 182.544C200.759 180.076 191.429 177.582 182.104 174.994C136.61 162.368 91.2003 147.478 57.1632 122.272C23.1591 97.0897 0.5 61.6068 0.5 7.71759C0.5 -42.3726 24.4467 -83.9617 64.2687 -113.044C104.1 -142.134 159.822 -158.711 223.327 -158.711H437.882V-72.4528H222.293C187.597 -72.4528 159.572 -65.3286 140.205 -52.3318C120.818 -39.3216 110.129 -20.4379 110.129 2.97531C110.129 34.601 133.148 53.2165 167.308 67.0299C190.857 76.5528 219.833 83.8449 250.45 91.5502C264.238 95.0201 278.359 98.5737 292.467 102.453C337.951 114.958 383.357 130.853 417.39 158.215C451.395 185.554 474.069 224.358 474.069 282.77C474.069 336.187 449.341 380.858 407.453 412.19C365.656 443.453 306.762 461.441 238.302 461.528V375.271H238.835Z" stroke="white" stroke-opacity="0.2"/>
<line opacity="0.2" x1="238.141" y1="375.911" x2="255.141" y2="380.911" stroke="white"/>
<path d="M255.464 380.669C291.721 380.669 323.102 372.355 345.436 357.347C367.783 342.329 381.069 320.606 381.069 293.859C381.069 275.839 375.341 261.292 365.315 249.227C355.299 237.173 341.011 227.617 323.917 219.531C296.757 206.685 262.401 197.503 226.624 187.942C217.388 185.474 208.058 182.981 198.732 180.393C153.239 167.766 107.829 152.877 73.7921 127.67C39.788 102.488 17.1289 67.0053 17.1289 13.116C17.1289 -36.9741 41.0756 -78.5632 80.8976 -107.646C120.729 -136.735 176.451 -153.312 239.956 -153.312H454.511V-67.0544H238.922C204.226 -67.0544 176.201 -59.9302 156.834 -46.9334C137.447 -33.9231 126.758 -15.0394 126.758 8.37375C126.758 39.9995 149.777 58.6149 183.936 72.4284C207.486 81.9513 236.462 89.2433 267.079 96.9487C280.867 100.419 294.988 103.972 309.096 107.851C354.58 120.357 399.986 136.252 434.019 163.614C468.024 190.953 490.698 229.757 490.698 288.169C490.698 341.585 465.97 386.256 424.082 417.588C382.285 448.851 323.391 466.84 254.93 466.927V380.669H255.464Z" stroke="white" stroke-opacity="0.15"/>
</svg>
